<svg id="Слой_1" data-name="Слой 1" xmlns="http://www.w3.org/2000/svg" xmlns:xlink="http://www.w3.org/1999/xlink" viewBox="0 0 1455.29 2184.97"><defs><style>.cls-1{fill:none;}.cls-2{clip-path:url(#clip-path);}.cls-3{clip-path:url(#clip-path-2);}.cls-4{opacity:0.1;}.cls-5{clip-path:url(#clip-path-3);}.cls-6{fill:#b74787;}.cls-7{clip-path:url(#clip-path-4);}.cls-8{clip-path:url(#clip-path-5);}.cls-9{clip-path:url(#clip-path-6);}.cls-10{clip-path:url(#clip-path-7);}.cls-11{clip-path:url(#clip-path-8);}.cls-12{clip-path:url(#clip-path-9);}</style><clipPath id="clip-path" transform="translate(0 0)"><rect class="cls-1" width="1455.29" height="2184.97"/></clipPath><clipPath id="clip-path-2" transform="translate(0 0)"><rect class="cls-1" width="1455.29" height="2184.97"/></clipPath><clipPath id="clip-path-3" transform="translate(0 0)"><rect class="cls-1" y="280.6" width="118.98" height="187.85"/></clipPath><clipPath id="clip-path-4" transform="translate(0 0)"><rect class="cls-1" x="1245.41" y="1022.36" width="135.8" height="219.63"/></clipPath><clipPath id="clip-path-5" transform="translate(0 0)"><rect class="cls-1" x="129.43" y="1956.83" width="141.06" height="228.13"/></clipPath><clipPath id="clip-path-6" transform="translate(0 0)"><rect class="cls-1" x="1336.91" width="118.38" height="154.6"/></clipPath><clipPath id="clip-path-7" transform="translate(0 0)"><rect class="cls-1" x="685.13" y="1730.8" width="118.38" height="154.6"/></clipPath><clipPath id="clip-path-8" transform="translate(0 0)"><rect class="cls-1" x="80.15" y="1404.27" width="199.3" height="192.48"/></clipPath><clipPath id="clip-path-9" transform="translate(0 0)"><rect class="cls-1" x="1213.47" y="1526.48" width="139.71" height="241"/></clipPath></defs><g class="cls-2"><g class="cls-3"><g class="cls-4"><g class="cls-5"><path class="cls-6" d="M51,434.16c4.08,13.09-3.79,27.7-17.57,32.64S5.15,465.15,1.07,452.07s3.8-27.7,17.57-32.64S46.89,421.08,51,434.16" transform="translate(0 0)"/><path class="cls-6" d="M115,395.07a3.68,3.68,0,0,1-1.06.6,3,3,0,0,1-3.92-1.79L78,290.37,16.35,329.61,48.83,434.53a3.27,3.27,0,0,1-2.14,4,3,3,0,0,1-3.91-1.79L9.61,329.52a3.21,3.21,0,0,1,1.44-3.62l67.26-42.81a3.29,3.29,0,0,1,2.75-.39,2.81,2.81,0,0,1,1.86,1.84l33.17,107.18a3.2,3.2,0,0,1-1.07,3.35" transform="translate(0 0)"/><path class="cls-6" d="M45.57,440.62a5.06,5.06,0,0,1-2.23-.51,4.71,4.71,0,0,1-2.42-2.84L7.74,330.09A5.18,5.18,0,0,1,10,324.25l67.25-42.8a5.19,5.19,0,0,1,4.39-.61A4.8,4.8,0,0,1,84.78,284L118,391.14a5.12,5.12,0,0,1-1.7,5.42,5.31,5.31,0,0,1-1.65.95,5.2,5.2,0,0,1-4-.22,4.74,4.74,0,0,1-2.42-2.83L76.9,293.38,18.65,330.46,50.69,434a5.21,5.21,0,0,1-3.35,6.37,5.15,5.15,0,0,1-1.77.3M80.14,284.5a1.49,1.49,0,0,0-.78.24L12.09,327.55a1.26,1.26,0,0,0-.62,1.38L44.64,436.11a.9.9,0,0,0,.43.52,1.42,1.42,0,0,0,1,0,1.34,1.34,0,0,0,.93-1.54L14.05,328.76l65.06-41.4.76,2.43,32,103.51a.79.79,0,0,0,.44.51,1.21,1.21,0,0,0,1,0,1.38,1.38,0,0,0,.45-.27h0a1.26,1.26,0,0,0,.46-1.28L81.05,285.12a.85.85,0,0,0-.58-.57,1.26,1.26,0,0,0-.33-.05" transform="translate(0 0)"/><path class="cls-6" d="M117.91,390.79c4.07,13.08-3.79,27.69-17.57,32.64S72.1,421.78,68,408.69,71.81,381,85.59,376.05s28.25,1.66,32.32,14.74" transform="translate(0 0)"/><path class="cls-6" d="M15.27,330.05s3.47,17.13,6.46,16.31c4.74-1.28,65.77-39,65.77-39s-7.86-21.67-8.92-20-63.31,42.67-63.31,42.67" transform="translate(0 0)"/></g></g><g class="cls-4"><g class="cls-7"><path class="cls-6" d="M1310,1199.22c6.53,14.08-.12,31.67-14.85,39.28s-32,2.36-38.5-11.72.12-31.67,14.85-39.28,32-2.36,38.5,11.72" transform="translate(0 0)"/><path class="cls-6" d="M1376.09,1145.74a4.17,4.17,0,0,1-1.1.84,3.35,3.35,0,0,1-4.66-1.43l-51.45-111.46L1255.5,1087l52.15,113a3.71,3.71,0,0,1-1.8,4.76,3.34,3.34,0,0,1-4.66-1.43l-53.27-115.4a3.61,3.61,0,0,1,1.08-4.27l69.14-58.13a3.75,3.75,0,0,1,3-.86,3.2,3.2,0,0,1,2.37,1.8l53.27,115.4a3.63,3.63,0,0,1-.71,3.92" transform="translate(0 0)"/><path class="cls-6" d="M1304.9,1207.28a5.74,5.74,0,0,1-2.57-.25,5.32,5.32,0,0,1-3.15-2.82l-53.27-115.41a5.85,5.85,0,0,1,1.67-6.89l69.14-58.12a5.84,5.84,0,0,1,4.83-1.34,5.39,5.39,0,0,1,4,3l53.28,115.39a5.8,5.8,0,0,1-1.1,6.34,6.16,6.16,0,0,1-1.71,1.32,5.94,5.94,0,0,1-4.54.35,5.39,5.39,0,0,1-3.14-2.82l-50.23-108.83-59.87,50.33L1309.66,1199a5.91,5.91,0,0,1-2.81,7.65,6,6,0,0,1-1.95.61m15.5-180.49a1.65,1.65,0,0,0-.84.38l-69.15,58.12a1.42,1.42,0,0,0-.48,1.65l53.26,115.41a1,1,0,0,0,.56.52,1.56,1.56,0,0,0,1.08-.13,1.53,1.53,0,0,0,.82-1.87l-52.86-114.5,66.88-56.23,1.22,2.63,51.45,111.45a.9.9,0,0,0,.56.51,1.42,1.42,0,0,0,1.09-.11,1.67,1.67,0,0,0,.47-.37h0a1.43,1.43,0,0,0,.32-1.51l-53.27-115.39a1,1,0,0,0-.74-.56,1.21,1.21,0,0,0-.38,0" transform="translate(0 0)"/><path class="cls-6" d="M1378.7,1140.5c6.53,14.09-.12,31.67-14.85,39.28s-32,2.37-38.5-11.71.12-31.67,14.85-39.28,32-2.37,38.5,11.71" transform="translate(0 0)"/><path class="cls-6" d="M1254.35,1087.63s6.46,18.71,9.7,17.35c5.13-2.15,68-53.58,68-53.58s-12.07-23.16-13-21.15-64.73,57.38-64.73,57.38" transform="translate(0 0)"/></g></g><g class="cls-4"><g class="cls-8"><path class="cls-6" d="M196.52,2140.54c6.78,14.63-.12,32.9-15.43,40.8s-33.2,2.46-40-12.17.12-32.89,15.42-40.8,33.21-2.46,40,12.17" transform="translate(0 0)"/><path class="cls-6" d="M265.17,2085a3.8,3.8,0,0,1-1.14.87,3.47,3.47,0,0,1-4.84-1.48l-53.44-115.77L139.92,2024l54.17,117.35a3.86,3.86,0,0,1-1.88,4.94,3.48,3.48,0,0,1-4.84-1.48L132,2024.89a3.77,3.77,0,0,1,1.12-4.44L205,1960.07a3.84,3.84,0,0,1,3.14-.88,3.27,3.27,0,0,1,2.45,1.86l55.34,119.87a3.75,3.75,0,0,1-.74,4.07" transform="translate(0 0)"/><path class="cls-6" d="M191.23,2148.91a5.94,5.94,0,0,1-2.68-.25,5.59,5.59,0,0,1-3.27-2.93L130,2025.85a6.07,6.07,0,0,1,1.73-7.16l71.81-60.37a6.07,6.07,0,0,1,5-1.39,5.61,5.61,0,0,1,4.14,3.16L268,2080a6,6,0,0,1-1.13,6.58,6.28,6.28,0,0,1-1.78,1.37,6.17,6.17,0,0,1-4.72.37,5.56,5.56,0,0,1-3.25-2.93l-52.18-113-62.19,52.28,53.43,115.76a6.13,6.13,0,0,1-2.91,7.94,6,6,0,0,1-2,.63m16.09-187.48a1.82,1.82,0,0,0-.87.4l-71.82,60.38a1.48,1.48,0,0,0-.51,1.71l55.33,119.88a1,1,0,0,0,.58.53,1.64,1.64,0,0,0,1.13-.13,1.57,1.57,0,0,0,.84-1.94l-54.9-118.94,69.47-58.4,1.26,2.72,53.44,115.77a1,1,0,0,0,.59.54,1.48,1.48,0,0,0,1.13-.12,1.8,1.8,0,0,0,.49-.38h0a1.48,1.48,0,0,0,.33-1.57L208.49,1962a1,1,0,0,0-.77-.57,1.77,1.77,0,0,0-.4,0" transform="translate(0 0)"/><path class="cls-6" d="M267.88,2079.55c6.79,14.63-.12,32.9-15.42,40.8s-33.21,2.46-40-12.17.12-32.89,15.43-40.8,33.2-2.46,40,12.17" transform="translate(0 0)"/><path class="cls-6" d="M138.72,2024.63s6.71,19.44,10.08,18c5.32-2.24,70.67-55.66,70.67-55.66s-12.54-24-13.51-22-67.24,59.6-67.24,59.6" transform="translate(0 0)"/></g></g><g class="cls-4"><g class="cls-9"><path class="cls-6" d="M1391.71,130.94c4.06,11.61-4.69,22.13-19.55,23.5s-30.7-6.75-34.26-18.51c-4.11-13.6,5-23.77,19.82-25.15s29.93,8.56,34,20.16" transform="translate(0 0)"/><path class="cls-6" d="M1453.9,69.6A51,51,0,0,0,1446.61,55a96.35,96.35,0,0,0-9.08-10.4c-7-7.25-13.56-14.1-13.32-24.88a54,54,0,0,1,1.66-12.86l.83-3.3-.43-.09A4.46,4.46,0,0,0,1425.7,2a4.32,4.32,0,0,0-2.77-1.93,4.55,4.55,0,0,0-5.15,2.76l-.23.68c0,.19-.09.38-.14.57l-33.68,134.06v0a4.23,4.23,0,0,0,3.13,5.28,4.66,4.66,0,0,0,1.13.14,4.47,4.47,0,0,0,4.41-3.47l26.55-105.68c.4.79.82,1.56,1.28,2.31,3.14,5.27,7.35,9.39,11.42,13.37a79.1,79.1,0,0,1,8.76,9.55c6.73,9.19,9.08,17.79,6.95,25.57-2.36,9.07-10,17-18.45,19.16a3.18,3.18,0,0,0-2.44,3.65,3.13,3.13,0,0,0,1.31,2,3.08,3.08,0,0,0,2.41.43c8.52-2,16.1-7.88,20.78-16.24,4.46-8,5.53-17,2.94-24.69" transform="translate(0 0)"/></g></g><g class="cls-4"><g class="cls-10"><path class="cls-6" d="M739.93,1861.75c4.06,11.6-4.69,22.12-19.55,23.5s-30.7-6.75-34.26-18.52c-4.11-13.6,5-23.76,19.83-25.14s29.92,8.56,34,20.16" transform="translate(0 0)"/><path class="cls-6" d="M802.12,1800.4a51,51,0,0,0-7.29-14.58,97.32,97.32,0,0,0-9.08-10.4c-7-7.25-13.56-14.09-13.32-24.87a53.64,53.64,0,0,1,1.67-12.87l.82-3.3-.42-.09a4.65,4.65,0,0,0-.58-1.46,4.31,4.31,0,0,0-2.77-1.94,4.57,4.57,0,0,0-5.15,2.76l-.23.69c0,.18-.09.37-.13.57L732,1869v0a4.22,4.22,0,0,0,3.13,5.27,4.66,4.66,0,0,0,1.13.14,4.46,4.46,0,0,0,4.41-3.46l26.56-105.69c.39.8.81,1.57,1.27,2.32,3.14,5.26,7.36,9.38,11.42,13.37a77.48,77.48,0,0,1,8.76,9.54c6.73,9.19,9.08,17.8,7,25.57-2.35,9.08-10,17-18.45,19.17a3.18,3.18,0,0,0-2.44,3.64,3.1,3.1,0,0,0,1.31,2,3.14,3.14,0,0,0,2.41.44c8.53-2,16.11-7.89,20.78-16.25,4.46-8,5.53-17,2.94-24.69" transform="translate(0 0)"/></g></g><g class="cls-4"><g class="cls-11"><path class="cls-6" d="M158.6,1572.5C158,1591,140,1601.08,118.38,1595s-39.53-26.12-38.16-44.6c1.58-21.36,19.86-30.74,41.5-24.63s37.46,28.24,36.88,46.76" transform="translate(0 0)"/><path class="cls-6" d="M279.3,1519.9a76.72,76.72,0,0,0-2.35-24.45,146.19,146.19,0,0,0-7.14-19.55c-5.89-14-11.44-27.16-5.26-42.2a80.58,80.58,0,0,1,9.31-17.19l2.95-4.2-.56-.35a6.79,6.79,0,0,0,0-2.38,6.48,6.48,0,0,0-2.85-4.21,6.87,6.87,0,0,0-8.74,1.09l-.7.83-.49.73-120,170.3,0,0a6.36,6.36,0,0,0,1.54,9.11,7.29,7.29,0,0,0,1.51.81,6.72,6.72,0,0,0,8.08-2.49l94.59-134.26c.13,1.33.31,2.65.54,3.94,1.57,9.11,5.27,17.19,8.83,25,2.8,6.12,5.45,11.91,7.15,18.17,4.48,16.57,3.13,29.94-4.08,39.73-8.23,11.48-23.21,18.46-36.33,17a4.78,4.78,0,0,0-5.4,3.81,4.62,4.62,0,0,0,.73,3.57,4.69,4.69,0,0,0,3.16,1.92c13,1.85,26.92-2.37,38-11.59,10.58-8.79,17-20.89,17.5-33.14" transform="translate(0 0)"/></g></g><g class="cls-4"><g class="cls-12"><path class="cls-6" d="M1329.47,1699.25c17.17,7.61,19.73,28.36,5.73,46.34s-39.62,27.12-56.44,18.78c-19.44-9.64-21.27-30.38-7.27-48.36s40.82-24.37,58-16.76" transform="translate(0 0)"/><path class="cls-6" d="M1326.19,1565.87a77.72,77.72,0,0,0-23.85-7.14,146.92,146.92,0,0,0-21.08-.76c-15.36.19-29.86.36-41.62-11.18a82.52,82.52,0,0,1-12.58-15.3l-2.81-4.37-.55.38a6.58,6.58,0,0,0-7.28.17,7,7,0,0,0-2.31,8.62l.52,1,.49.75,114,177.66,0,0a6.45,6.45,0,0,0,9.14,2,7.06,7.06,0,0,0,1.34-1.11,6.83,6.83,0,0,0,.75-8.54L1250.51,1568c1.29.39,2.6.73,3.91,1,9.14,2,18.14,1.63,26.83,1.27,6.81-.3,13.27-.57,19.79.22,17.26,2.12,29.3,8.5,35.73,19,7.64,12.11,8.46,28.84,2,40.58a4.85,4.85,0,0,0,1.51,6.53,4.66,4.66,0,0,0,6.64-1.56c6.72-11.54,8.06-26.17,3.64-40.12-4.2-13.29-13.12-23.9-24.42-29.08" transform="translate(0 0)"/></g></g></g></g></svg>