<svg id="Слой_1" data-name="Слой 1" xmlns="http://www.w3.org/2000/svg" xmlns:xlink="http://www.w3.org/1999/xlink" viewBox="0 0 32.76 32.09"><defs><style>.cls-1{fill:none;}.cls-2{clip-path:url(#clip-path);}.cls-3{fill:#b74787;}</style><clipPath id="clip-path" transform="translate(0 0)"><rect class="cls-1" width="32.76" height="32.09"/></clipPath></defs><g class="cls-2"><path class="cls-3" d="M9.26.23l8.5,5.62,8.69-4.14A1.38,1.38,0,0,1,28.37,3.3L26,12.68l6.47,7.42a1.37,1.37,0,0,1-1,2.27L21.64,23l-5.06,8.44a1.37,1.37,0,0,1-2.45-.21l-3.62-9.15L1.07,19.9a1.37,1.37,0,0,1-.53-2.43l7.67-5.82L7.13,1.52A1.38,1.38,0,0,1,9.26.23" transform="translate(0 0)"/></g></svg>