<svg id="Слой_1" data-name="Слой 1" xmlns="http://www.w3.org/2000/svg" xmlns:xlink="http://www.w3.org/1999/xlink" viewBox="0 0 18.41 17.63"><defs><style>.cls-1{fill:none;}.cls-2{clip-path:url(#clip-path);}.cls-3{fill:#f0885c;}</style><clipPath id="clip-path" transform="translate(0 0)"><rect class="cls-1" width="18.41" height="17.63"/></clipPath></defs><g class="cls-2"><path class="cls-3" d="M9.9.44l2.44,5.18,5.37.55a.77.77,0,0,1,.46,1.32l-3.89,3.79.93,5.45a.77.77,0,0,1-1.12.81L9.2,15,4.31,17.54a.77.77,0,0,1-1.12-.81l.94-5.45L.23,7.49A.77.77,0,0,1,.69,6.17l5.38-.55L8.51.44A.77.77,0,0,1,9.9.44" transform="translate(0 0)"/></g></svg>